<svg id="Layer_1" data-name="Layer 1" xmlns="http://www.w3.org/2000/svg" viewBox="0 0 619.67 93.87"><defs><style>.cls-1{fill:#4a4a4c;}.cls-2{fill:#ffe300;}.cls-3{fill:none;}.cls-4{fill:#fde100;}</style></defs><title>website-logo</title><path class="cls-1" d="M274.29,54.82V1.32h29.14v9.49H283.86V22.66h19.28v9.42H283.86V45.32h19.57v9.49Z" transform="translate(-0.33 -0.21)"/><path class="cls-1" d="M337.06,1.32l15.75,53.5H342.43L339.78,46h-18l-2.5,8.83H309l15.89-53.5ZM324.48,36.79h12.66l-6.18-21h-.37Z" transform="translate(-0.33 -0.21)"/><path class="cls-1" d="M379.3,36.35V26.85h19.21c0,.54.08,1.23.11,2.06s0,1.69,0,2.58a37.08,37.08,0,0,1-1.1,9.05,22.27,22.27,0,0,1-3.6,7.84,18.08,18.08,0,0,1-6.59,5.48,24.18,24.18,0,0,1-18.47.44,18.53,18.53,0,0,1-6.92-5,24.44,24.44,0,0,1-4.71-8.65A40.62,40.62,0,0,1,355.53,28a40.35,40.35,0,0,1,1.73-12.55,23.51,23.51,0,0,1,4.82-8.65,19,19,0,0,1,7.29-5A24.9,24.9,0,0,1,378.42.21,20.26,20.26,0,0,1,385,1.28a19,19,0,0,1,12.47,13.65l-9.2,1.62a10.28,10.28,0,0,0-4.08-4.82A12.71,12.71,0,0,0,372.57,11a10.34,10.34,0,0,0-4,3.27A16.9,16.9,0,0,0,366,19.9,30.45,30.45,0,0,0,365,28a30.74,30.74,0,0,0,1,8.2,16.89,16.89,0,0,0,2.61,5.63,10.36,10.36,0,0,0,4,3.27,13,13,0,0,0,13-1.51,10.09,10.09,0,0,0,3.42-7.28Z" transform="translate(-0.33 -0.21)"/><path class="cls-1" d="M406.75,54.82V1.32h9.57v44h24.5v9.49Z" transform="translate(-0.33 -0.21)"/><path class="cls-1" d="M447.59,54.82V1.32h29.14v9.49H457.15V22.66h19.28v9.42H457.15V45.32h19.57v9.49Z" transform="translate(-0.33 -0.21)"/><path class="cls-1" d="M508.66,54.82V1.32H537.8v9.49H518.23V22.66h19.28v9.42H518.23V45.32H537.8v9.49Z" transform="translate(-0.33 -0.21)"/><path class="cls-1" d="M559,54.82V34.51L543.18,1.32h10.74L564.3,23.76,574.6,1.32h10.6l-15.67,33V54.82Z" transform="translate(-0.33 -0.21)"/><path class="cls-1" d="M590.86,54.82V1.32H620v9.49H600.43V22.66h19.28v9.42H600.43V45.32H620v9.49Z" transform="translate(-0.33 -0.21)"/><path class="cls-1" d="M150.33,47.91,131.75,87.35l-19-39.53L124.81,4.45a4.81,4.81,0,0,1,4.54-3.22h18.12a4.75,4.75,0,0,1,4.12,2.32c1.07,1.85,1.61,4.8-1.13,8.89a3.79,3.79,0,0,0-3.63-4.8,3.78,3.78,0,0,0-3.74,4.47C143.14,12.44,150.33,47.91,150.33,47.91Z" transform="translate(-0.33 -0.21)"/><path class="cls-2" d="M140.26,4.49a2.1,2.1,0,0,1-4.19,0Z" transform="translate(-0.33 -0.21)"/><line class="cls-3" x1="122.97" y1="84.26" x2="122.97" y2="83.79"/><polygon class="cls-4" points="192.14 23.7 186.12 36.1 237.78 36.1 221.64 58.79 175.09 58.79 169.08 71.18 212.83 71.18 196.69 93.87 133.36 93.87 178.43 1.02 262.73 1.02 246.59 23.7 192.14 23.7"/><polygon class="cls-4" points="70.59 23.7 76.61 36.1 24.95 36.1 41.09 58.79 87.64 58.79 93.66 71.18 49.9 71.18 66.04 93.87 129.38 93.87 84.31 1.02 0 1.02 16.14 23.7 70.59 23.7"/><path class="cls-1" d="M274.55,93.47V64.19h11.12a9.68,9.68,0,0,1,3.56.62A7.6,7.6,0,0,1,292,66.6a7.92,7.92,0,0,1,1.73,2.84,11.87,11.87,0,0,1,0,7.59A7.48,7.48,0,0,1,289,81.61a11.23,11.23,0,0,1-3.73.58h-6.65V93.47Zm10.92-15.19A4.74,4.74,0,0,0,289,77a5.09,5.09,0,0,0,1.23-3.69,5.63,5.63,0,0,0-1.19-3.87,4.44,4.44,0,0,0-3.48-1.33h-7V78.28Z" transform="translate(-0.33 -0.21)"/><path class="cls-1" d="M309.76,94.07a10.6,10.6,0,0,1-4.69-1,10.73,10.73,0,0,1-3.73-3,15,15,0,0,1-2.48-4.79,22.95,22.95,0,0,1,0-12.77,15,15,0,0,1,2.48-4.79,10.73,10.73,0,0,1,3.73-3,10.6,10.6,0,0,1,4.69-1,9.9,9.9,0,0,1,4.55,1.07,10.27,10.27,0,0,1,3.58,3.06,15.35,15.35,0,0,1,2.34,4.79,24,24,0,0,1,0,12.63,15.3,15.3,0,0,1-2.34,4.81A10.27,10.27,0,0,1,314.31,93,9.9,9.9,0,0,1,309.76,94.07Zm-.2-4.31a6.42,6.42,0,0,0,3-.7A6.75,6.75,0,0,0,314.91,87a10.65,10.65,0,0,0,1.57-3.42,20,20,0,0,0,0-9.43,10.42,10.42,0,0,0-1.57-3.4,6.84,6.84,0,0,0-2.38-2.07,6.42,6.42,0,0,0-3-.7,6.6,6.6,0,0,0-3,.68,6.75,6.75,0,0,0-2.42,2.05,10.4,10.4,0,0,0-1.61,3.4,17.21,17.21,0,0,0-.58,4.73,17.43,17.43,0,0,0,.58,4.75A10.37,10.37,0,0,0,304.18,87a6.94,6.94,0,0,0,2.42,2.07A6.45,6.45,0,0,0,309.55,89.76Z" transform="translate(-0.33 -0.21)"/><path class="cls-1" d="M345,93.47l-4.91-20.82h-.2l-5.24,20.82h-5.4l-6.81-29.28h4.59l5,23h.2l5.6-23h4.39l5.4,23h.2l5-23h4.55l-6.93,29.28Z" transform="translate(-0.33 -0.21)"/><path class="cls-1" d="M360.83,93.47V64.19h15.55v4H364.86v8.26h11.36v3.95H364.86v9.06h11.52v4Z" transform="translate(-0.33 -0.21)"/><path class="cls-1" d="M397.32,93.47A3.19,3.19,0,0,1,397,92.1v-6.6A4,4,0,0,0,396,82.37a4.44,4.44,0,0,0-3-.95h-7.09v12h-4V64.19h10.43a8.37,8.37,0,0,1,6.28,2.28,8.54,8.54,0,0,1,2.22,6.22,8,8,0,0,1-1,4.41,5.45,5.45,0,0,1-2.3,2.07,7.27,7.27,0,0,1,1.35.64A4,4,0,0,1,400,80.9a5.85,5.85,0,0,1,.83,1.71,8.34,8.34,0,0,1,.32,2.48V92a3.07,3.07,0,0,0,.08.7c.05.23.12.49.2.78Zm-4.83-15.79a4.36,4.36,0,0,0,3.16-1.11,4.9,4.9,0,0,0,1.15-3.64,4.9,4.9,0,0,0-1.15-3.51,4.71,4.71,0,0,0-3.56-1.21h-6.24v9.47Z" transform="translate(-0.33 -0.21)"/><path class="cls-1" d="M431,72.56a7.58,7.58,0,0,0-.26-2,4.71,4.71,0,0,0-.8-1.65,3.67,3.67,0,0,0-1.45-1.11,5.29,5.29,0,0,0-2.16-.4,5.52,5.52,0,0,0-3.58,1.11,3.57,3.57,0,0,0-1.37,2.92,4.54,4.54,0,0,0,.26,1.59,3.3,3.3,0,0,0,.91,1.29,7.17,7.17,0,0,0,1.75,1.11,18.62,18.62,0,0,0,2.8,1q4.43,1.29,6.34,3.5a8.33,8.33,0,0,1,1.92,5.64,9.25,9.25,0,0,1-.67,3.6,7.33,7.33,0,0,1-1.87,2.68A8.39,8.39,0,0,1,430,93.49a11.53,11.53,0,0,1-7.19,0,9.24,9.24,0,0,1-2.94-1.63,8.81,8.81,0,0,1-2.13-2.62,9.3,9.3,0,0,1-1-3.57l4-1a8.66,8.66,0,0,0,.48,2,5.77,5.77,0,0,0,1,1.77,5.05,5.05,0,0,0,1.63,1.27,5.17,5.17,0,0,0,2.33.48,5.25,5.25,0,0,0,3.65-1.25,4.58,4.58,0,0,0,1.39-3.59,4.08,4.08,0,0,0-1.25-3.06,9.72,9.72,0,0,0-4.07-2,27.17,27.17,0,0,1-3.59-1.33,9.23,9.23,0,0,1-2.64-1.77A7.06,7.06,0,0,1,418,74.68a9.28,9.28,0,0,1-.56-3.4,7.1,7.1,0,0,1,.75-3.3,7.22,7.22,0,0,1,2-2.42A8.81,8.81,0,0,1,423,64.09a10.78,10.78,0,0,1,3.28-.5,11.21,11.21,0,0,1,3.53.52,7.08,7.08,0,0,1,4.53,4.27,10.16,10.16,0,0,1,.64,3.79Z" transform="translate(-0.33 -0.21)"/><path class="cls-1" d="M451.61,94.07a10.6,10.6,0,0,1-4.69-1,10.73,10.73,0,0,1-3.73-3,14.93,14.93,0,0,1-2.48-4.79,22.93,22.93,0,0,1,0-12.77,15,15,0,0,1,2.48-4.79,10.73,10.73,0,0,1,3.73-3,10.6,10.6,0,0,1,4.69-1,9.9,9.9,0,0,1,4.55,1.07,10.27,10.27,0,0,1,3.59,3.06,15.35,15.35,0,0,1,2.33,4.79,24,24,0,0,1,0,12.63,15.3,15.3,0,0,1-2.33,4.81A10.27,10.27,0,0,1,456.16,93,9.9,9.9,0,0,1,451.61,94.07Zm-.2-4.31a6.42,6.42,0,0,0,3-.7A6.75,6.75,0,0,0,456.77,87a10.63,10.63,0,0,0,1.57-3.42,20,20,0,0,0,0-9.43,10.4,10.4,0,0,0-1.57-3.4,6.84,6.84,0,0,0-2.38-2.07,6.42,6.42,0,0,0-3-.7,6.61,6.61,0,0,0-3,.68A6.76,6.76,0,0,0,446,70.67a10.38,10.38,0,0,0-1.61,3.4,17.21,17.21,0,0,0-.58,4.73,17.42,17.42,0,0,0,.58,4.75A10.36,10.36,0,0,0,446,87a7,7,0,0,0,2.42,2.07A6.46,6.46,0,0,0,451.41,89.76Z" transform="translate(-0.33 -0.21)"/><path class="cls-1" d="M468.13,93.47V64.19h4V89.48h14.18v4Z" transform="translate(-0.33 -0.21)"/><path class="cls-1" d="M505.79,64.19h4V83a17.91,17.91,0,0,1-.64,5.2,8.57,8.57,0,0,1-1.87,3.4,6.89,6.89,0,0,1-3,1.87,14,14,0,0,1-4.15.56,14.91,14.91,0,0,1-4.29-.56,7.4,7.4,0,0,1-3.16-1.85,8.19,8.19,0,0,1-2-3.36,16.83,16.83,0,0,1-.66-5.1v-19h4V83.44a10.73,10.73,0,0,0,.4,3.2,5.1,5.1,0,0,0,1.17,2.05,4.18,4.18,0,0,0,1.91,1.11,9.61,9.61,0,0,0,2.6.32,8.43,8.43,0,0,0,2.44-.32,3.94,3.94,0,0,0,1.79-1.11,5,5,0,0,0,1.09-2.07,12.1,12.1,0,0,0,.36-3.22Z" transform="translate(-0.33 -0.21)"/><path class="cls-1" d="M521.58,93.47V68.21h-7.89v-4h20v4h-7.81V93.47Z" transform="translate(-0.33 -0.21)"/><path class="cls-1" d="M537.85,93.47V64.19h4.07V93.47Z" transform="translate(-0.33 -0.21)"/><path class="cls-1" d="M559,94.07a10.6,10.6,0,0,1-4.69-1,10.73,10.73,0,0,1-3.73-3,14.93,14.93,0,0,1-2.48-4.79,22.93,22.93,0,0,1,0-12.77,15,15,0,0,1,2.48-4.79,10.73,10.73,0,0,1,3.73-3,10.6,10.6,0,0,1,4.69-1,9.9,9.9,0,0,1,4.55,1.07,10.27,10.27,0,0,1,3.59,3.06,15.35,15.35,0,0,1,2.33,4.79,24,24,0,0,1,0,12.63,15.3,15.3,0,0,1-2.33,4.81A10.27,10.27,0,0,1,563.55,93,9.9,9.9,0,0,1,559,94.07Zm-.2-4.31a6.42,6.42,0,0,0,3-.7A6.75,6.75,0,0,0,564.15,87a10.63,10.63,0,0,0,1.57-3.42,20,20,0,0,0,0-9.43,10.4,10.4,0,0,0-1.57-3.4,6.84,6.84,0,0,0-2.38-2.07,6.42,6.42,0,0,0-3-.7,6.61,6.61,0,0,0-3,.68,6.76,6.76,0,0,0-2.42,2.05,10.38,10.38,0,0,0-1.61,3.4,17.21,17.21,0,0,0-.58,4.73,17.42,17.42,0,0,0,.58,4.75A10.36,10.36,0,0,0,553.42,87a7,7,0,0,0,2.42,2.07A6.46,6.46,0,0,0,558.79,89.76Z" transform="translate(-0.33 -0.21)"/><path class="cls-1" d="M592.51,93.47,579.62,71.4h-.16V93.47h-3.95V64.19h4.79l12,21.27h.16V64.19h3.95V93.47Z" transform="translate(-0.33 -0.21)"/><path class="cls-1" d="M615.22,72.56a7.58,7.58,0,0,0-.26-2,4.74,4.74,0,0,0-.8-1.65,3.69,3.69,0,0,0-1.45-1.11,5.3,5.3,0,0,0-2.16-.4A5.52,5.52,0,0,0,607,68.48a3.57,3.57,0,0,0-1.37,2.92,4.54,4.54,0,0,0,.26,1.59,3.3,3.3,0,0,0,.91,1.29,7.2,7.2,0,0,0,1.75,1.11,18.62,18.62,0,0,0,2.8,1q4.43,1.29,6.34,3.5a8.33,8.33,0,0,1,1.91,5.64,9.28,9.28,0,0,1-.66,3.6A7.34,7.34,0,0,1,617,91.82a8.38,8.38,0,0,1-2.88,1.67,11.53,11.53,0,0,1-7.19,0A9.23,9.23,0,0,1,604,91.88a8.84,8.84,0,0,1-2.13-2.62,9.26,9.26,0,0,1-1-3.57l4-1a8.75,8.75,0,0,0,.48,2,5.85,5.85,0,0,0,1,1.77A5.07,5.07,0,0,0,608,89.68a5.18,5.18,0,0,0,2.34.48A5.24,5.24,0,0,0,614,88.92a4.57,4.57,0,0,0,1.39-3.59,4.08,4.08,0,0,0-1.25-3.06,9.71,9.71,0,0,0-4.07-2,27,27,0,0,1-3.59-1.33,9.2,9.2,0,0,1-2.64-1.77,7,7,0,0,1-1.63-2.48,9.25,9.25,0,0,1-.56-3.4,7.12,7.12,0,0,1,.74-3.3,7.24,7.24,0,0,1,2-2.42,8.81,8.81,0,0,1,2.82-1.47,10.79,10.79,0,0,1,3.28-.5,11.2,11.2,0,0,1,3.52.52,7.09,7.09,0,0,1,4.53,4.27,10.2,10.2,0,0,1,.64,3.79Z" transform="translate(-0.33 -0.21)"/></svg>